#!OML:ASF F:\VICON\USERDATA\INSTALL\rory3\rory3.ASF
:FULLY-SPECIFIED
:DEGREES
2174
root 4.21666 18.5271 -1.98268 -0.209842 17.2036 -4.71494
lowerback 14.9077 -1.2169 -2.88373
upperback 6.40504 -1.95366 -0.828555
thorax -1.51202 -0.985463 1.06796
lowerneck -6.18803 -11.7476 -13.8776
upperneck 2.84937 -15.9234 19.1002
head 4.60108 -7.53072 6.92313
rclavicle 9.02482e-014 -1.27222e-014
rhumerus -41.3648 28.1321 -90.6438
rradius 75.6936
rwrist -9.21212
rhand -43.95 13.9265
rfingers 7.12502
rthumb -16.7731 -15.369
lclavicle 9.02482e-014 -1.27222e-014
lhumerus -47.1927 -47.0099 95.3294
lradius 62.8737
lwrist -19.522
lhand -47.7091 15.5622
lfingers 7.12502
lthumb -20.3888 44.5119
rfemur -17.905 11.4442 8.01446
rtibia 35.2577
rfoot -0.64534 -27.4372
rtoes 1.5854
lfemur -19.0135 5.22521 -13.5653
ltibia 36.1818
lfoot -15.3039 6.83545
ltoes -4.27559
2175
root 4.2772 18.5664 -1.95899 -0.227869 17.0189 -4.60858
lowerback 14.6863 -1.30847 -2.96981
upperback 6.38313 -2.07853 -0.785204
thorax -1.40751 -1.05174 1.17492
lowerneck -6.83982 -11.7452 -13.9166
upperneck 3.09439 -15.8719 19.0052
head 4.76957 -7.46587 6.86711
rclavicle 2.94201e-014 -2.8625e-014
rhumerus -40.9002 27.3616 -90.0381
rradius 75.5696
rwrist -9.36471
rhand -43.7971 13.4004
rfingers 7.12502
rthumb -16.6259 -15.9075
lclavicle 2.94201e-014 -2.8625e-014
lhumerus -46.3243 -45.6821 94.4867
lradius 62.6903
lwrist -19.6474
lhand -47.554 15.4866
lfingers 7.12502
lthumb -20.2398 44.4521
rfemur -17.5768 11.5426 7.96594
rtibia 34.8395
rfoot -0.297031 -28.0326
rtoes 3.60832
lfemur -18.2441 4.9904 -13.8358
ltibia 35.2511
lfoot -15.2396 7.23346
ltoes -3.90255
2176
root 4.34024 18.6068 -1.93453 -0.156496 16.7893 -4.4694
lowerback 14.3487 -1.32406 -2.98333
upperback 6.21658 -2.09794 -0.844417
thorax -1.40425 -1.06076 1.1171
lowerneck -6.90202 -11.7204 -13.8678
upperneck 3.22907 -15.8564 19.0188
head 4.81517 -7.44938 6.86133
rclavicle -3.33958e-014 -6.36111e-015
rhumerus -40.854 26.2981 -89.6198
rradius 75.4811
rwrist -9.50654
rhand -43.6172 13.5211
rfingers 7.12502
rthumb -16.4527 -15.8012
lclavicle -3.33958e-014 -6.36111e-015
lhumerus -45.8586 -44.6743 93.9223
lradius 62.361
lwrist -19.8059
lhand -47.4706 15.4497
lfingers 7.12502
lthumb -20.1597 44.4237
rfemur -17.5837 11.6578 7.83501
rtibia 34.4366
rfoot 0.754961 -28.8161
rtoes 3.49136
lfemur -17.3807 4.54767 -14.1031
ltibia 34.2838
lfoot -15.5997 7.31786
ltoes -0.745482
2177
root 4.39681 18.639 -1.90866 -0.146938 16.5328 -4.3893
lowerback 14.0551 -1.33072 -3.03188
upperback 6.05076 -2.11042 -0.866279
thorax -1.42041 -1.06708 1.11807
lowerneck -6.86861 -11.7098 -13.7865
upperneck 3.31789 -15.8598 18.9594
head 4.8241 -7.45063 6.83051
rclavicle -1.07344e-014 3.02153e-014
rhumerus -40.8361 25.2397 -89.2645
rradius 75.3385
rwrist -9.53773
rhand -43.6247 13.6061
rfingers 7.12502
rthumb -16.4599 -15.7157
lclavicle -1.07344e-014 3.02153e-014
lhumerus -45.4143 -43.5028 93.3592
lradius 62.0109
lwrist -20.1303
lhand -47.5378 15.2762
lfingers 7.12502
lthumb -20.2242 44.2433
rfemur -17.2766 11.6251 7.86271
rtibia 34.1004
rfoot 0.160666 -29.5164
rtoes 5.73968
lfemur -16.58 4.19033 -14.3214
ltibia 33.3633
lfoot -15.747 7.68989
ltoes 0.779748
2178
root 4.44625 18.6738 -1.88261 -0.209487 16.2509 -4.42527
lowerback 13.7687 -1.33031 -3.08479
upperback 5.95794 -2.1095 -0.808775
thorax -1.36047 -1.06942 1.20086
lowerneck -6.88984 -11.6755 -13.713
upperneck 3.34411 -15.8129 18.882
head 4.81418 -7.42693 6.79979
rclavicle 3.61788e-014 9.54166e-015
rhumerus -40.701 24.2598 -88.8675
rradius 75.1449
rwrist -9.46201
rhand -43.6716 12.8605
rfingers 7.12502
rthumb -16.505 -16.4575
lclavicle 3.61788e-014 9.54166e-015
lhumerus -44.8295 -42.2395 92.7372
lradius 61.689
lwrist -20.3166
lhand -47.5294 15.3982
lfingers 7.12502
lthumb -20.2161 44.3662
rfemur -17.1116 11.8364 8.03532
rtibia 33.7604
rfoot 0.345696 -30.3985
rtoes 7.06524
lfemur -15.835 3.9776 -14.4145
ltibia 32.474
lfoot -15.6576 8.21722
ltoes 0.78711
2179
root 4.49589 18.704 -1.86345 -0.120502 16.0471 -4.38707
lowerback 13.423 -1.38654 -3.14549
upperback 5.82184 -2.18351 -0.776956
thorax -1.31116 -1.10829 1.27066
lowerneck -6.82367 -11.5768 -13.709
upperneck 3.31636 -15.684 18.9185
head 4.77673 -7.36675 6.83244
rclavicle 5.08889e-014 -1.59028e-014
rhumerus -40.5101 23.4135 -88.4825
rradius 74.8981
rwrist -9.46772
rhand -43.5389 12.0237
rfingers 7.12502
rthumb -16.3773 -17.3048
lclavicle 5.08889e-014 -1.59028e-014
lhumerus -44.1639 -40.9386 92.066
lradius 61.3055
lwrist -20.4538
lhand -47.529 15.8696
lfingers 7.12502
lthumb -20.2158 44.8376
rfemur -17.0815 11.9257 8.08492
rtibia 33.4154
rfoot 0.1937 -31.0895
rtoes 8.79752
lfemur -15.3112 3.71485 -14.6096
ltibia 31.6599
lfoot -15.5719 8.70672
ltoes 0.861882
2180
root 4.54531 18.7333 -1.85136 0.031028 15.9364 -4.29237
lowerback 13.2205 -1.45316 -3.20422
upperback 5.58165 -2.27962 -0.764182
thorax -1.44701 -1.15369 1.32873
lowerneck -6.7708 -11.5159 -13.6885
upperneck 3.4165 -15.6173 18.8763
head 4.78089 -7.33476 6.82691
rclavicle 2.10712e-014 -1.74931e-014
rhumerus -40.4965 22.5208 -88.1398
rradius 74.6969
rwrist -9.47294
rhand -43.2914 11.8519
rfingers 7.12502
rthumb -16.139 -17.4962
lclavicle 2.10712e-014 -1.74931e-014
lhumerus -43.6345 -39.6195 91.4924
lradius 60.9336
lwrist -20.4953
lhand -47.5465 16.2325
lfingers 7.12502
lthumb -20.2326 45.1988
rfemur -17.0885 11.7716 8.07197
rtibia 33.0262
rfoot -0.501803 -31.7107
rtoes 11.6152
lfemur -14.9415 3.43983 -14.915
ltibia 30.8402
lfoot -15.2159 9.402
ltoes -0.127517
2181
root 4.59669 18.7668 -1.83271 0.0062982 15.6983 -4.25508
lowerback 13.0836 -1.45201 -3.21342
upperback 5.41778 -2.2802 -0.742049
thorax -1.54373 -1.15207 1.35602
lowerneck -6.87246 -11.5092 -13.7169
upperneck 3.64489 -15.6261 18.8668
head 4.86915 -7.3271 6.81941
rclavicle -1.82882e-014 -2.06736e-014
rhumerus -40.565 21.5806 -87.8043
rradius 74.4917
rwrist -9.29072
rhand -43.205 11.9332
rfingers 7.12502
rthumb -16.0557 -17.4216
lclavicle -1.82882e-014 -2.06736e-014
lhumerus -43.1944 -38.2274 90.9279
lradius 60.7124
lwrist -20.5736
lhand -47.2647 16.662
lfingers 7.12502
lthumb -19.9618 45.6567
rfemur -17.0018 11.6402 8.19496
rtibia 32.6703
rfoot -0.843013 -32.1364
rtoes 14.3246
lfemur -14.3765 3.30087 -15.172
ltibia 29.9771
lfoot -14.6482 10.3298
ltoes -2.09637
2182
root 4.65474 18.7985 -1.79855 -0.084736 15.1913 -4.08753
lowerback 12.7906 -1.39477 -3.31498
upperback 5.33618 -2.21167 -0.804902
thorax -1.47287 -1.12003 1.33076
lowerneck -6.86793 -11.4821 -13.7483
upperneck 3.80963 -15.6155 18.9157
head 4.92316 -7.31582 6.84015
rclavicle -1.03368e-014 4.77083e-015
rhumerus -40.5336 20.7658 -87.5166
rradius 74.2115
rwrist -9.34028
rhand -43.0467 11.8692
rfingers 7.12502
rthumb -15.9033 -17.4978
lclavicle -1.03368e-014 4.77083e-015
lhumerus -42.8475 -36.8084 90.3346
lradius 60.5549
lwrist -20.6645
lhand -46.8541 17.4555
lfingers 7.12502
lthumb -19.567 46.4909
rfemur -16.8492 11.5738 8.20684
rtibia 32.4085
rfoot -0.387415 -31.6182
rtoes 15.2893
lfemur -13.4757 3.19223 -15.5272
ltibia 29.0561
lfoot -14.473 11.1677
ltoes -2.55065
2183
root 4.71034 18.8222 -1.7611 -0.079716 14.7328 -3.75315
lowerback 12.4461 -1.35761 -3.54033
upperback 5.21614 -2.18353 -0.938869
thorax -1.40979 -1.10829 1.30597
lowerneck -6.7701 -11.4577 -13.6291
upperneck 3.9501 -15.6105 18.7915
head 4.92609 -7.31674 6.78688
rclavicle 1.39149e-014 4.77083e-015
rhumerus -40.4662 19.9986 -87.2474
rradius 73.8971
rwrist -9.71433
rhand -42.7605 12.0784
rfingers 7.12502
rthumb -15.6277 -17.3104
lclavicle 1.39149e-014 4.77083e-015
lhumerus -42.5396 -35.5018 89.761
lradius 60.3686
lwrist -20.6729
lhand -46.581 18.1404
lfingers 7.12502
lthumb -19.3045 47.2022
rfemur -16.7168 11.443 8.02894
rtibia 32.2093
rfoot 0.182911 -30.3255
rtoes 14.9171
lfemur -12.5098 2.8552 -16.0141
ltibia 28.1499
lfoot -14.8563 11.6104
ltoes -0.315062
2184
root 4.76067 18.835 -1.73012 -0.0092506 14.4487 -3.4595
lowerback 12.0839 -1.37596 -3.72647
upperback 5.10486 -2.22008 -1.03841
thorax -1.3247 -1.12891 1.30258
lowerneck -6.78859 -11.4293 -13.4895
upperneck 4.08055 -15.5833 18.6256
head 4.93665 -7.30194 6.7141
rclavicle 1.66979e-014 1.27222e-014
rhumerus -40.4 19.264 -86.9961
rradius 73.5088
rwrist -9.63863
rhand -42.7744 12.3947
rfingers 7.12502
rthumb -15.6411 -16.993
lclavicle 1.66979e-014 1.27222e-014
lhumerus -42.089 -34.1664 89.1172
lradius 60.2179
lwrist -20.7791
lhand -46.4271 18.2377
lfingers 7.12502
lthumb -19.1564 47.3142
rfemur -16.6589 11.2545 7.8843
rtibia 32.1361
rfoot 0.43531 -28.727
rtoes 13.2594
lfemur -11.6218 2.3455 -16.4359
ltibia 27.3052
lfoot -15.6014 11.6199
ltoes 4.014
